<mxfile host="app.diagrams.net" modified="2021-01-04T06:43:20.937Z" agent="5.0 (X11; Linux x86_64) AppleWebKit/537.36 (KHTML, like Gecko) Chrome/87.0.4280.88 Safari/537.36" etag="BGGUsJZIxIgLgPevNtQN" version="14.1.6" type="github" pages="2">
  <diagram id="6eIwNfogzPNkVRxrMjrU" name="Page-1">
    <mxGraphModel dx="1248" dy="717" grid="1" gridSize="10" guides="1" tooltips="1" connect="1" arrows="1" fold="1" page="1" pageScale="1" pageWidth="827" pageHeight="1169" math="0" shadow="0">
      <root>
        <mxCell id="0" />
        <mxCell id="1" parent="0" />
        <mxCell id="2LD7fc8T0odOQV2mHp-X-10" value="" style="rounded=0;whiteSpace=wrap;html=1;" parent="1" vertex="1">
          <mxGeometry x="160" y="150" width="540" height="380" as="geometry" />
        </mxCell>
        <mxCell id="2LD7fc8T0odOQV2mHp-X-12" style="edgeStyle=orthogonalEdgeStyle;rounded=0;orthogonalLoop=1;jettySize=auto;html=1;exitX=0.5;exitY=1;exitDx=0;exitDy=0;endArrow=none;endFill=0;" parent="1" source="2LD7fc8T0odOQV2mHp-X-1" target="2LD7fc8T0odOQV2mHp-X-5" edge="1">
          <mxGeometry relative="1" as="geometry" />
        </mxCell>
        <mxCell id="2LD7fc8T0odOQV2mHp-X-1" value="&lt;font face=&quot;Times New Roman&quot; style=&quot;font-size: 14px&quot;&gt;STATE MACHINE&lt;/font&gt;" style="rounded=1;whiteSpace=wrap;html=1;" parent="1" vertex="1">
          <mxGeometry x="354" y="220" width="120" height="60" as="geometry" />
        </mxCell>
        <mxCell id="2LD7fc8T0odOQV2mHp-X-2" value="&lt;font style=&quot;font-size: 14px&quot; face=&quot;Times New Roman&quot;&gt;MESSENGER&lt;/font&gt;" style="rounded=1;whiteSpace=wrap;html=1;" parent="1" vertex="1">
          <mxGeometry x="530" y="390" width="120" height="60" as="geometry" />
        </mxCell>
        <mxCell id="2LD7fc8T0odOQV2mHp-X-15" style="edgeStyle=orthogonalEdgeStyle;rounded=0;orthogonalLoop=1;jettySize=auto;html=1;entryX=0.25;entryY=0;entryDx=0;entryDy=0;endArrow=none;endFill=0;" parent="1" source="2LD7fc8T0odOQV2mHp-X-3" target="2LD7fc8T0odOQV2mHp-X-5" edge="1">
          <mxGeometry relative="1" as="geometry" />
        </mxCell>
        <mxCell id="2LD7fc8T0odOQV2mHp-X-3" value="&lt;font style=&quot;font-size: 14px&quot; face=&quot;Times New Roman&quot;&gt;Console Manager&lt;/font&gt;" style="rounded=1;whiteSpace=wrap;html=1;" parent="1" vertex="1">
          <mxGeometry x="210" y="280" width="120" height="60" as="geometry" />
        </mxCell>
        <mxCell id="2LD7fc8T0odOQV2mHp-X-4" value="&lt;font face=&quot;Times New Roman&quot; style=&quot;font-size: 14px&quot;&gt;VALIDATOR&lt;/font&gt;" style="rounded=1;whiteSpace=wrap;html=1;" parent="1" vertex="1">
          <mxGeometry x="354" y="440" width="120" height="60" as="geometry" />
        </mxCell>
        <mxCell id="2LD7fc8T0odOQV2mHp-X-13" style="edgeStyle=orthogonalEdgeStyle;rounded=0;orthogonalLoop=1;jettySize=auto;html=1;exitX=1;exitY=1;exitDx=0;exitDy=0;endArrow=none;endFill=0;" parent="1" source="2LD7fc8T0odOQV2mHp-X-5" target="2LD7fc8T0odOQV2mHp-X-2" edge="1">
          <mxGeometry relative="1" as="geometry" />
        </mxCell>
        <mxCell id="2LD7fc8T0odOQV2mHp-X-14" style="edgeStyle=orthogonalEdgeStyle;rounded=0;orthogonalLoop=1;jettySize=auto;html=1;exitX=1;exitY=0;exitDx=0;exitDy=0;entryX=0;entryY=0.5;entryDx=0;entryDy=0;endArrow=none;endFill=0;" parent="1" source="2LD7fc8T0odOQV2mHp-X-5" target="2LD7fc8T0odOQV2mHp-X-6" edge="1">
          <mxGeometry relative="1" as="geometry" />
        </mxCell>
        <mxCell id="2LD7fc8T0odOQV2mHp-X-16" style="edgeStyle=orthogonalEdgeStyle;rounded=0;orthogonalLoop=1;jettySize=auto;html=1;exitX=0.5;exitY=1;exitDx=0;exitDy=0;endArrow=none;endFill=0;" parent="1" source="2LD7fc8T0odOQV2mHp-X-5" target="2LD7fc8T0odOQV2mHp-X-4" edge="1">
          <mxGeometry relative="1" as="geometry" />
        </mxCell>
        <mxCell id="2LD7fc8T0odOQV2mHp-X-5" value="&lt;font style=&quot;font-size: 14px&quot; face=&quot;Times New Roman&quot;&gt;Configuration CORE&lt;/font&gt;" style="rounded=1;whiteSpace=wrap;html=1;" parent="1" vertex="1">
          <mxGeometry x="354" y="340" width="120" height="60" as="geometry" />
        </mxCell>
        <mxCell id="2LD7fc8T0odOQV2mHp-X-6" value="&lt;font face=&quot;Times New Roman&quot; style=&quot;font-size: 14px&quot;&gt;Connectivity Manager&lt;/font&gt;" style="rounded=1;whiteSpace=wrap;html=1;" parent="1" vertex="1">
          <mxGeometry x="530" y="280" width="120" height="60" as="geometry" />
        </mxCell>
        <mxCell id="2LD7fc8T0odOQV2mHp-X-11" value="&lt;font face=&quot;Times New Roman&quot; size=&quot;1&quot;&gt;&lt;b style=&quot;font-size: 17px&quot;&gt;Configuration Manager&lt;/b&gt;&lt;/font&gt;" style="text;html=1;align=center;verticalAlign=middle;resizable=0;points=[];autosize=1;" parent="1" vertex="1">
          <mxGeometry x="335" y="150" width="190" height="20" as="geometry" />
        </mxCell>
      </root>
    </mxGraphModel>
  </diagram>
  <diagram id="BDJm1umuG3p2eeTWFMI6" name="Page-2">
    <mxGraphModel dx="1248" dy="717" grid="1" gridSize="10" guides="1" tooltips="1" connect="1" arrows="1" fold="1" page="1" pageScale="1" pageWidth="827" pageHeight="1169" math="0" shadow="0">
      <root>
        <mxCell id="sNVK6XGTzGybgCKoQpxa-0" />
        <mxCell id="sNVK6XGTzGybgCKoQpxa-1" parent="sNVK6XGTzGybgCKoQpxa-0" />
        <mxCell id="M8DuYNyFk_Nc_exrJ9hQ-14" style="edgeStyle=orthogonalEdgeStyle;rounded=0;orthogonalLoop=1;jettySize=auto;html=1;exitX=0;exitY=0.25;exitDx=0;exitDy=0;entryX=1;entryY=0.25;entryDx=0;entryDy=0;" edge="1" parent="sNVK6XGTzGybgCKoQpxa-1" source="M8DuYNyFk_Nc_exrJ9hQ-0" target="M8DuYNyFk_Nc_exrJ9hQ-2">
          <mxGeometry relative="1" as="geometry">
            <Array as="points">
              <mxPoint x="360" y="305" />
            </Array>
          </mxGeometry>
        </mxCell>
        <mxCell id="M8DuYNyFk_Nc_exrJ9hQ-15" style="edgeStyle=orthogonalEdgeStyle;rounded=0;orthogonalLoop=1;jettySize=auto;html=1;exitX=1;exitY=0.5;exitDx=0;exitDy=0;entryX=0;entryY=0.5;entryDx=0;entryDy=0;" edge="1" parent="sNVK6XGTzGybgCKoQpxa-1" source="M8DuYNyFk_Nc_exrJ9hQ-0" target="M8DuYNyFk_Nc_exrJ9hQ-3">
          <mxGeometry relative="1" as="geometry" />
        </mxCell>
        <mxCell id="M8DuYNyFk_Nc_exrJ9hQ-0" value="&lt;font face=&quot;Times New Roman&quot; style=&quot;font-size: 14px&quot;&gt;Configuartion manager&lt;/font&gt;" style="rounded=1;whiteSpace=wrap;html=1;fillColor=#f8cecc;strokeColor=#b85450;" vertex="1" parent="sNVK6XGTzGybgCKoQpxa-1">
          <mxGeometry x="360" y="294" width="120" height="60" as="geometry" />
        </mxCell>
        <mxCell id="M8DuYNyFk_Nc_exrJ9hQ-16" style="edgeStyle=orthogonalEdgeStyle;rounded=0;orthogonalLoop=1;jettySize=auto;html=1;exitX=1;exitY=0.5;exitDx=0;exitDy=0;entryX=0;entryY=0.5;entryDx=0;entryDy=0;" edge="1" parent="sNVK6XGTzGybgCKoQpxa-1" source="M8DuYNyFk_Nc_exrJ9hQ-1" target="M8DuYNyFk_Nc_exrJ9hQ-4">
          <mxGeometry relative="1" as="geometry" />
        </mxCell>
        <mxCell id="M8DuYNyFk_Nc_exrJ9hQ-28" style="edgeStyle=orthogonalEdgeStyle;rounded=0;orthogonalLoop=1;jettySize=auto;html=1;exitX=0;exitY=0.25;exitDx=0;exitDy=0;entryX=1;entryY=0.25;entryDx=0;entryDy=0;" edge="1" parent="sNVK6XGTzGybgCKoQpxa-1" source="M8DuYNyFk_Nc_exrJ9hQ-1" target="M8DuYNyFk_Nc_exrJ9hQ-5">
          <mxGeometry relative="1" as="geometry" />
        </mxCell>
        <mxCell id="M8DuYNyFk_Nc_exrJ9hQ-1" value="&lt;font face=&quot;Times New Roman&quot;&gt;&lt;span style=&quot;font-size: 14px&quot;&gt;Pattern&amp;nbsp;&lt;br&gt;Generator&lt;br&gt;&lt;/span&gt;&lt;/font&gt;" style="rounded=1;whiteSpace=wrap;html=1;fillColor=#f8cecc;strokeColor=#b85450;" vertex="1" parent="sNVK6XGTzGybgCKoQpxa-1">
          <mxGeometry x="360" y="440" width="120" height="60" as="geometry" />
        </mxCell>
        <mxCell id="M8DuYNyFk_Nc_exrJ9hQ-2" value="&lt;font face=&quot;Times New Roman&quot;&gt;&lt;span style=&quot;font-size: 14px&quot;&gt;&lt;b&gt;UART&lt;br&gt;Driver&lt;/b&gt;&lt;br&gt;&lt;/span&gt;&lt;/font&gt;" style="rounded=1;whiteSpace=wrap;html=1;fillColor=#d5e8d4;strokeColor=#82b366;" vertex="1" parent="sNVK6XGTzGybgCKoQpxa-1">
          <mxGeometry x="150" y="290" width="120" height="60" as="geometry" />
        </mxCell>
        <mxCell id="M8DuYNyFk_Nc_exrJ9hQ-3" value="&lt;font face=&quot;Times New Roman&quot;&gt;&lt;span style=&quot;font-size: 14px&quot;&gt;&lt;b&gt;I2C&amp;nbsp;&lt;br&gt;Driver&lt;/b&gt;&lt;br&gt;&lt;/span&gt;&lt;/font&gt;" style="rounded=1;whiteSpace=wrap;html=1;fillColor=#d5e8d4;strokeColor=#82b366;" vertex="1" parent="sNVK6XGTzGybgCKoQpxa-1">
          <mxGeometry x="570" y="294" width="120" height="60" as="geometry" />
        </mxCell>
        <mxCell id="M8DuYNyFk_Nc_exrJ9hQ-4" value="&lt;font face=&quot;Times New Roman&quot; style=&quot;font-size: 14px&quot;&gt;&lt;b&gt;GPIO&amp;nbsp;&lt;br&gt;Driver&lt;/b&gt;&lt;br&gt;&lt;/font&gt;" style="rounded=1;whiteSpace=wrap;html=1;fillColor=#d5e8d4;strokeColor=#82b366;" vertex="1" parent="sNVK6XGTzGybgCKoQpxa-1">
          <mxGeometry x="570" y="440" width="120" height="60" as="geometry" />
        </mxCell>
        <mxCell id="M8DuYNyFk_Nc_exrJ9hQ-5" value="&lt;font face=&quot;Times New Roman&quot;&gt;&lt;span style=&quot;font-size: 14px&quot;&gt;&lt;b&gt;PIT&amp;nbsp;&lt;br&gt;Driver&lt;/b&gt;&lt;br&gt;&lt;/span&gt;&lt;/font&gt;" style="rounded=1;whiteSpace=wrap;html=1;fillColor=#d5e8d4;strokeColor=#82b366;" vertex="1" parent="sNVK6XGTzGybgCKoQpxa-1">
          <mxGeometry x="150" y="440" width="120" height="60" as="geometry" />
        </mxCell>
        <mxCell id="M8DuYNyFk_Nc_exrJ9hQ-9" value="&lt;font face=&quot;Times New Roman&quot;&gt;UART ISR&lt;/font&gt;" style="rounded=0;whiteSpace=wrap;html=1;fillColor=#dae8fc;strokeColor=#6c8ebf;" vertex="1" parent="sNVK6XGTzGybgCKoQpxa-1">
          <mxGeometry x="250" y="320" width="40" height="30" as="geometry" />
        </mxCell>
        <mxCell id="M8DuYNyFk_Nc_exrJ9hQ-10" value="&lt;font face=&quot;Times New Roman&quot;&gt;PIT ISR&lt;/font&gt;" style="rounded=0;whiteSpace=wrap;html=1;fillColor=#dae8fc;strokeColor=#6c8ebf;" vertex="1" parent="sNVK6XGTzGybgCKoQpxa-1">
          <mxGeometry x="250" y="470" width="40" height="30" as="geometry" />
        </mxCell>
        <mxCell id="M8DuYNyFk_Nc_exrJ9hQ-11" value="" style="rounded=0;orthogonalLoop=1;jettySize=auto;html=1;endArrow=none;endFill=0;" edge="1" target="M8DuYNyFk_Nc_exrJ9hQ-13" parent="sNVK6XGTzGybgCKoQpxa-1">
          <mxGeometry relative="1" as="geometry">
            <mxPoint x="290" y="338" as="sourcePoint" />
          </mxGeometry>
        </mxCell>
        <mxCell id="M8DuYNyFk_Nc_exrJ9hQ-12" value="" style="rounded=0;orthogonalLoop=1;jettySize=auto;html=1;endArrow=halfCircle;endFill=0;entryX=0.5;entryY=0.5;entryDx=0;entryDy=0;endSize=6;strokeWidth=1;exitX=0;exitY=0.75;exitDx=0;exitDy=0;" edge="1" target="M8DuYNyFk_Nc_exrJ9hQ-13" parent="sNVK6XGTzGybgCKoQpxa-1" source="M8DuYNyFk_Nc_exrJ9hQ-0">
          <mxGeometry relative="1" as="geometry">
            <mxPoint x="340" y="338" as="sourcePoint" />
          </mxGeometry>
        </mxCell>
        <mxCell id="M8DuYNyFk_Nc_exrJ9hQ-13" value="" style="ellipse;whiteSpace=wrap;html=1;fontFamily=Helvetica;fontSize=12;fontColor=#000000;align=center;strokeColor=#000000;fillColor=#ffffff;points=[];aspect=fixed;resizable=0;" vertex="1" parent="sNVK6XGTzGybgCKoQpxa-1">
          <mxGeometry x="315" y="333" width="10" height="10" as="geometry" />
        </mxCell>
        <mxCell id="M8DuYNyFk_Nc_exrJ9hQ-17" value="" style="rounded=0;orthogonalLoop=1;jettySize=auto;html=1;endArrow=none;endFill=0;exitX=0.385;exitY=1.042;exitDx=0;exitDy=0;exitPerimeter=0;" edge="1" parent="sNVK6XGTzGybgCKoQpxa-1" source="M8DuYNyFk_Nc_exrJ9hQ-0">
          <mxGeometry relative="1" as="geometry">
            <mxPoint x="400" y="395" as="sourcePoint" />
            <mxPoint x="406" y="386" as="targetPoint" />
          </mxGeometry>
        </mxCell>
        <mxCell id="M8DuYNyFk_Nc_exrJ9hQ-18" value="" style="rounded=0;orthogonalLoop=1;jettySize=auto;html=1;endArrow=halfCircle;endFill=0;endSize=6;strokeWidth=1;exitX=0.415;exitY=-0.015;exitDx=0;exitDy=0;exitPerimeter=0;" edge="1" parent="sNVK6XGTzGybgCKoQpxa-1" source="M8DuYNyFk_Nc_exrJ9hQ-19">
          <mxGeometry relative="1" as="geometry">
            <mxPoint x="404.79999999999995" y="439.0999999999999" as="sourcePoint" />
            <mxPoint x="405" y="390" as="targetPoint" />
          </mxGeometry>
        </mxCell>
        <mxCell id="M8DuYNyFk_Nc_exrJ9hQ-19" value="" style="ellipse;whiteSpace=wrap;html=1;fontFamily=Helvetica;fontSize=12;fontColor=#000000;align=center;strokeColor=#000000;fillColor=#ffffff;points=[];aspect=fixed;resizable=0;direction=west;" vertex="1" parent="sNVK6XGTzGybgCKoQpxa-1">
          <mxGeometry x="400" y="380" width="10" height="10" as="geometry" />
        </mxCell>
        <mxCell id="M8DuYNyFk_Nc_exrJ9hQ-20" value="" style="rounded=0;orthogonalLoop=1;jettySize=auto;html=1;endArrow=halfCircle;endFill=0;endSize=6;strokeWidth=1;exitX=0.415;exitY=-0.015;exitDx=0;exitDy=0;exitPerimeter=0;" edge="1" parent="sNVK6XGTzGybgCKoQpxa-1">
          <mxGeometry relative="1" as="geometry">
            <mxPoint x="404.79999999999995" y="439.0999999999999" as="sourcePoint" />
            <mxPoint x="405" y="385" as="targetPoint" />
          </mxGeometry>
        </mxCell>
        <mxCell id="M8DuYNyFk_Nc_exrJ9hQ-21" value="" style="rounded=0;orthogonalLoop=1;jettySize=auto;html=1;endArrow=none;endFill=0;exitX=0.75;exitY=0;exitDx=0;exitDy=0;" edge="1" parent="sNVK6XGTzGybgCKoQpxa-1" source="M8DuYNyFk_Nc_exrJ9hQ-1">
          <mxGeometry relative="1" as="geometry">
            <mxPoint x="400" y="395" as="sourcePoint" />
            <mxPoint x="450" y="399" as="targetPoint" />
          </mxGeometry>
        </mxCell>
        <mxCell id="M8DuYNyFk_Nc_exrJ9hQ-22" value="" style="rounded=0;orthogonalLoop=1;jettySize=auto;html=1;endArrow=halfCircle;endFill=0;endSize=6;strokeWidth=1;exitX=0.75;exitY=1;exitDx=0;exitDy=0;entryX=0.574;entryY=0.182;entryDx=0;entryDy=0;entryPerimeter=0;" edge="1" parent="sNVK6XGTzGybgCKoQpxa-1">
          <mxGeometry relative="1" as="geometry">
            <mxPoint x="449" y="352" as="sourcePoint" />
            <mxPoint x="449.74" y="391.81999999999994" as="targetPoint" />
          </mxGeometry>
        </mxCell>
        <mxCell id="M8DuYNyFk_Nc_exrJ9hQ-23" value="" style="ellipse;whiteSpace=wrap;html=1;fontFamily=Helvetica;fontSize=12;fontColor=#000000;align=center;strokeColor=#000000;fillColor=#ffffff;points=[];aspect=fixed;resizable=0;" vertex="1" parent="sNVK6XGTzGybgCKoQpxa-1">
          <mxGeometry x="445" y="390" width="10" height="10" as="geometry" />
        </mxCell>
        <mxCell id="M8DuYNyFk_Nc_exrJ9hQ-25" value="" style="rounded=0;orthogonalLoop=1;jettySize=auto;html=1;endArrow=none;endFill=0;exitX=1;exitY=0.5;exitDx=0;exitDy=0;" edge="1" target="M8DuYNyFk_Nc_exrJ9hQ-27" parent="sNVK6XGTzGybgCKoQpxa-1" source="M8DuYNyFk_Nc_exrJ9hQ-10">
          <mxGeometry relative="1" as="geometry">
            <mxPoint x="306" y="483" as="sourcePoint" />
          </mxGeometry>
        </mxCell>
        <mxCell id="M8DuYNyFk_Nc_exrJ9hQ-26" value="" style="rounded=0;orthogonalLoop=1;jettySize=auto;html=1;endArrow=halfCircle;endFill=0;entryX=0.5;entryY=0.5;entryDx=0;entryDy=0;endSize=6;strokeWidth=1;exitX=0;exitY=0.75;exitDx=0;exitDy=0;" edge="1" target="M8DuYNyFk_Nc_exrJ9hQ-27" parent="sNVK6XGTzGybgCKoQpxa-1" source="M8DuYNyFk_Nc_exrJ9hQ-1">
          <mxGeometry relative="1" as="geometry">
            <mxPoint x="346" y="483" as="sourcePoint" />
          </mxGeometry>
        </mxCell>
        <mxCell id="M8DuYNyFk_Nc_exrJ9hQ-27" value="" style="ellipse;whiteSpace=wrap;html=1;fontFamily=Helvetica;fontSize=12;fontColor=#000000;align=center;strokeColor=#000000;fillColor=#ffffff;points=[];aspect=fixed;resizable=0;" vertex="1" parent="sNVK6XGTzGybgCKoQpxa-1">
          <mxGeometry x="321" y="480" width="10" height="10" as="geometry" />
        </mxCell>
        <mxCell id="M8DuYNyFk_Nc_exrJ9hQ-29" value="&lt;font face=&quot;Times New Roman&quot;&gt;Config &amp;amp; command&lt;br&gt;&amp;nbsp;QUEUE&lt;/font&gt;" style="text;html=1;align=center;verticalAlign=middle;resizable=0;points=[];autosize=1;" vertex="1" parent="sNVK6XGTzGybgCKoQpxa-1">
          <mxGeometry x="290" y="380" width="110" height="30" as="geometry" />
        </mxCell>
        <mxCell id="M8DuYNyFk_Nc_exrJ9hQ-30" value="&lt;font face=&quot;Times New Roman&quot;&gt;Status&amp;nbsp;&lt;br&gt;QUEUE&lt;/font&gt;" style="text;html=1;align=center;verticalAlign=middle;resizable=0;points=[];autosize=1;" vertex="1" parent="sNVK6XGTzGybgCKoQpxa-1">
          <mxGeometry x="455" y="380" width="60" height="30" as="geometry" />
        </mxCell>
        <mxCell id="M8DuYNyFk_Nc_exrJ9hQ-31" value="&lt;font face=&quot;Times New Roman&quot;&gt;data QUEUE&lt;/font&gt;" style="text;html=1;align=center;verticalAlign=middle;resizable=0;points=[];autosize=1;" vertex="1" parent="sNVK6XGTzGybgCKoQpxa-1">
          <mxGeometry x="286" y="310" width="80" height="20" as="geometry" />
        </mxCell>
        <mxCell id="M8DuYNyFk_Nc_exrJ9hQ-32" value="&lt;font face=&quot;Times New Roman&quot;&gt;Task Notification&lt;/font&gt;" style="text;html=1;align=center;verticalAlign=middle;resizable=0;points=[];autosize=1;" vertex="1" parent="sNVK6XGTzGybgCKoQpxa-1">
          <mxGeometry x="276" y="500" width="100" height="20" as="geometry" />
        </mxCell>
        <mxCell id="M8DuYNyFk_Nc_exrJ9hQ-33" value="&lt;b&gt;&lt;font face=&quot;Times New Roman&quot;&gt;UART API&lt;/font&gt;&lt;/b&gt;" style="text;html=1;align=center;verticalAlign=middle;resizable=0;points=[];autosize=1;" vertex="1" parent="sNVK6XGTzGybgCKoQpxa-1">
          <mxGeometry x="285" y="288" width="70" height="20" as="geometry" />
        </mxCell>
        <mxCell id="M8DuYNyFk_Nc_exrJ9hQ-34" value="&lt;b&gt;&lt;font face=&quot;Times New Roman&quot;&gt;I2C API&lt;/font&gt;&lt;/b&gt;" style="text;html=1;align=center;verticalAlign=middle;resizable=0;points=[];autosize=1;" vertex="1" parent="sNVK6XGTzGybgCKoQpxa-1">
          <mxGeometry x="490" y="300" width="60" height="20" as="geometry" />
        </mxCell>
        <mxCell id="M8DuYNyFk_Nc_exrJ9hQ-35" value="&lt;b&gt;&lt;font face=&quot;Times New Roman&quot;&gt;GPIO API&lt;/font&gt;&lt;/b&gt;" style="text;html=1;align=center;verticalAlign=middle;resizable=0;points=[];autosize=1;" vertex="1" parent="sNVK6XGTzGybgCKoQpxa-1">
          <mxGeometry x="485" y="450" width="70" height="20" as="geometry" />
        </mxCell>
        <mxCell id="M8DuYNyFk_Nc_exrJ9hQ-36" value="&lt;b&gt;&lt;font face=&quot;Times New Roman&quot;&gt;PIT API&lt;/font&gt;&lt;/b&gt;" style="text;html=1;align=center;verticalAlign=middle;resizable=0;points=[];autosize=1;" vertex="1" parent="sNVK6XGTzGybgCKoQpxa-1">
          <mxGeometry x="296" y="437" width="60" height="20" as="geometry" />
        </mxCell>
      </root>
    </mxGraphModel>
  </diagram>
</mxfile>
